<svg xmlns="http://www.w3.org/2000/svg" version="1.1" xmlns:xlink="http://www.w3.org/1999/xlink" xmlns:svgjs="http://svgjs.com/svgjs" width="100" height="100"><svg xmlns="http://www.w3.org/2000/svg" xmlns:xlink="http://www.w3.org/1999/xlink" version="1.1" x="0px" y="0px" xml:space="preserve" viewBox="0 0 100 100"><path d="M25.812,69.741c1.047,2.042,5.858,7.814,8.848,8.332c-0.296,0.991-0.119,2.916-1.461,3.977  c-0.784,0.62-1.865,1.362-5.496,1.812c-2.662,0.33-5.164,7.57,0.206,3.33c0.062-0.048-0.128,3.118,1.443,1.376  c0.994-1.102,1.644-2.364,2.675-2.812c2.338-1.017,5.152-0.214,5.985,0.64c0.944,0.97-2.13,1.931-4.809,1.877  c-5.48-0.112-6.157,8.678-2.515,5.054c1.394-1.387-0.323,2.469,2.412,1.521c0.452-1.306,0.562-2.465,2.341-3.744  c1.581-0.842,4.325-1.24,9.695,0.07c1.395,0.34,2.839,1.238,3.237,1.895c0.961-2.032,0.97-3.883-5.333-5.637  c-0.466-1.347,0.05-5.997,0.048-6.015c0.064-0.022,15.068,2.899,16.246,3.137c3.225,9.961,14.985,8.535,20.775,4.988  c0.727-0.445-7.112-3.496-8.604-10.531c6.205,0.011,12.765-1.721,15.394-4.065C81.63,73.124,71.256,64.914,68.02,53.516  c-1.944-6.847-9.083-17.53-14.594-19.926c-1.593-0.692-2.724-2.528-1.801-4.934c0.486-1.265,0.531-3.451-0.301-5.196  c0.726-1.108,0.489-1.207,0.489-2.297c0-5.687-3.785-9.251-4.096-10.148c0.061-0.804,0.685-2.344,4.265-2.417  c-4.107-3.446-6.981-0.38-7.004-0.406c-4.146-4.807-19.482-3.597-22.492-0.239c-2.145-0.705-4.287-1.78-6.929,1.011  c2.793-0.49,4.493,0.945,4.165,2.545c-0.047,0.228-6.498,8.558-3.113,11.1c0.031,3.706-1.52,6.09,1.588,7.413  c0.211,0.09-3.821,8.298-4.542,13.09c-1.657,11.014,0.215,18.232,8.276,26.216C28.067,75.406,26.027,71.24,25.812,69.741z   M37.554,15.1c0.508-0.012,1.059,0.07,1.435,0.07c-0.309,1.438,0.286,2.779,1.315,2.975c3.143,0.6,2.763-3.81,1.113-3.412  c0.521-0.513,1.02-0.973,1.28-1.217c2.434,1.241,2.468,5.177-0.39,6.524C39.18,21.514,36.336,17.831,37.554,15.1z M37.003,79.043  c1.559,0.712,2.682,1.36,3.415,1.807c-0.112,1.628-0.22,2.351-0.622,3.117C37.295,84.24,36.295,81.671,37.003,79.043z   M35.966,21.281c-1.073,1.989-1.613,3.304-2.093,5.076c-0.864-3.028-2.277-5.118-2.21-5.174  C32.718,20.292,34.471,19.851,35.966,21.281z M24.31,13.446c0.259,0.245,0.759,0.705,1.28,1.217  c-1.65-0.397-2.031,4.013,1.113,3.413c1.029-0.196,1.624-1.537,1.315-2.976c0.376,0,0.927-0.081,1.435-0.07  c1.219,2.731-1.626,6.415-4.753,4.941C21.842,18.623,21.876,14.687,24.31,13.446z"></path></svg><style>@media (prefers-color-scheme: light) { :root { filter: none; } }
@media (prefers-color-scheme: dark) { :root { filter: invert(100%); } }
</style></svg>